# xmcd
#
# Track frame offsets:
#	150
#	21130
#	38287
#	51982
#	71182
#	87370
#	103260
#	122765
#	143520
#	168280
#	194450
#	222540
#	232705
#	257572
#	285880
#
# Disc length: 4054
#
# Revision: 6
# Processed by: cddbd v1.5.1PL0 Copyright (c) Steve Scherf et al.
# Submitted via: ExactAudioCopy v0.95a5
# Normalized: r5:DSETVAR1
#
DISCID=cc0fd40f
DTITLE=Various Artist - Big Blues Extravaganza!- The Best of Austin City Limits
DYEAR=1998
DGENRE=Blues
TTITLE0=Albert Collins - Travellin' South
TTITLE1=Lightnin' Sam Hopkins - Rock Me Baby
TTITLE2=Stevie Ray Vaughan - Love Struck Baby
TTITLE3=Jimmie Vaughan and the Tilt-A-Whirl Band - Six Strings Down
TTITLE4=Miss Lavelle White - I've Never Found a Man
TTITLE5=Keb' Mo' - Tell Everybody I Know
TTITLE6=Gatemouth Brown - Born In Louisiana
TTITLE7=Dr. John - Since I Fell for You
TTITLE8=Buddy Guy - Mary Had a Little Lamb
TTITLE9=Taj Mahal - Queen Bee
TTITLE10=Neville Brothers - Yellow Moon
TTITLE11=Rory Block - Big Road Blues
TTITLE12=W. C. Clark and Friends - Ain't It Funny How Time Slips Away
TTITLE13=B. B. King - Night Life
TTITLE14=Delbert McClinton - Leap of Faith
EXTD=LABEL =Sony Music Entertainment Inc.\nID =CK65324\nUPC =07464-65324-23\nCOPYRIGHT =1998
EXTT0=
EXTT1=
EXTT2=
EXTT3=
EXTT4=
EXTT5=
EXTT6=
EXTT7=
EXTT8=
EXTT9=
EXTT10=
EXTT11=
EXTT12=
EXTT13=
EXTT14=
PLAYORDER=
